<?xml version="1.0" standalone="no"?>
<!DOCTYPE svg PUBLIC "-//W3C//DTD SVG 20010904//EN"
 "http://www.w3.org/TR/2001/REC-SVG-20010904/DTD/svg10.dtd">
<svg version="1.0" xmlns="http://www.w3.org/2000/svg"
 width="1280.000000pt" height="1280.000000pt" viewBox="0 0 1280.000000 1280.000000"
 preserveAspectRatio="xMidYMid meet">
<metadata>
Created by potrace 1.11, written by Peter Selinger 2001-2013
</metadata>
<g transform="translate(0.000000,1280.000000) scale(0.100000,-0.100000)"
fill="#000000" stroke="none">
<path d="M3545 12793 c-91 -19 -198 -49 -258 -74 -279 -115 -551 -373 -767
-729 -72 -118 -188 -351 -235 -472 l-10 -26 -220 140 c-184 117 -223 138 -238
129 -17 -11 -657 -534 -723 -591 l-32 -27 105 -179 c423 -719 586 -1001 585
-1014 0 -8 -20 -60 -42 -115 -50 -119 -318 -778 -334 -818 -6 -15 -20 -30 -31
-32 -11 -3 -308 -52 -660 -110 -352 -58 -650 -108 -663 -110 l-22 -5 0 -515 0
-514 38 -10 c148 -38 837 -215 1132 -290 l225 -57 18 -37 c16 -34 115 -276
294 -716 41 -101 72 -189 70 -196 -5 -11 -187 -245 -655 -844 -118 -151 -215
-280 -216 -286 -1 -11 43 -59 298 -325 50 -52 172 -179 270 -282 157 -164 182
-186 195 -174 9 7 135 93 281 191 146 98 333 224 415 280 83 56 229 155 325
220 96 65 179 118 185 118 10 -1 955 -420 963 -427 2 -3 16 -60 32 -128 67
-295 133 -586 170 -748 22 -96 59 -256 82 -356 l41 -181 516 5 c284 2 519 7
523 10 3 4 16 57 27 117 12 61 23 119 25 130 44 218 99 496 103 515 38 207
135 676 140 681 10 10 944 381 959 382 6 0 258 -160 560 -355 682 -441 665
-430 668 -426 183 249 566 781 566 787 0 4 -13 19 -29 32 -16 13 -102 94 -192
179 -255 242 -327 310 -424 401 -49 46 -128 121 -175 165 -47 45 -97 92 -111
105 -15 13 -95 89 -179 169 -84 80 -158 150 -165 155 -6 6 -32 30 -58 54 l-46
44 -57 -49 c-480 -415 -877 -665 -1334 -839 -188 -72 -475 -143 -645 -160 -33
-3 -80 -8 -105 -11 -65 -8 -326 -7 -406 1 -350 35 -654 132 -952 302 -393 226
-735 581 -967 1003 -131 240 -244 544 -289 780 -3 14 -10 50 -16 80 -24 120
-40 313 -40 475 0 195 9 335 21 335 5 0 9 -8 9 -19 0 -27 75 -289 121 -421 65
-188 98 -265 199 -465 142 -282 275 -471 449 -642 427 -416 935 -489 1386
-198 171 110 299 235 473 460 14 18 25 25 28 18 14 -32 136 -199 207 -281 253
-296 556 -456 882 -467 702 -24 1311 640 1595 1739 47 180 75 316 100 483 7
43 14 85 15 93 2 8 4 23 4 33 1 27 99 -52 241 -193 230 -228 392 -462 565
-815 132 -267 240 -553 335 -885 34 -120 101 -383 114 -450 2 -14 14 -68 25
-120 47 -228 115 -660 136 -870 3 -30 8 -64 10 -75 23 -112 27 -556 6 -675
-98 -568 -416 -1118 -1020 -1759 -224 -239 -404 -414 -836 -816 -345 -319
-593 -586 -709 -760 -78 -116 -143 -270 -164 -382 -62 -343 101 -662 430 -841
197 -107 501 -177 918 -212 232 -20 436 -25 925 -25 494 0 936 10 1305 29 52
3 151 8 220 11 69 3 159 7 200 10 41 3 134 7 205 10 72 3 148 8 170 10 183 20
243 28 335 46 235 45 431 109 625 203 538 263 895 705 1074 1330 31 108 66
256 76 321 29 193 37 259 49 390 9 99 12 266 11 490 -2 297 -8 423 -30 665 -9
99 -42 412 -50 480 -9 66 -56 425 -60 450 -2 14 -13 88 -25 165 -37 247 -60
399 -70 455 -6 30 -22 127 -36 215 -13 88 -33 214 -44 280 -46 285 -82 512
-85 535 -2 14 -11 70 -20 125 -20 127 -68 456 -80 545 -2 19 -11 82 -19 140
-9 58 -20 143 -25 190 -32 272 -51 443 -56 500 -3 36 -10 108 -15 160 -5 52
-12 142 -16 200 -3 58 -8 107 -9 110 -6 10 -20 463 -20 645 0 185 13 573 19
585 2 3 7 43 10 90 17 210 64 507 112 710 91 377 219 696 403 1005 97 163 116
221 115 360 0 99 -4 118 -32 191 -73 184 -236 312 -439 344 -164 27 -349 -40
-472 -170 -92 -97 -312 -502 -419 -771 -50 -124 -121 -319 -127 -349 -2 -9
-14 -54 -29 -100 -47 -157 -107 -413 -131 -563 -3 -17 -7 -43 -10 -57 -3 -14
-7 -41 -10 -60 -3 -19 -7 -46 -10 -60 -6 -32 -11 -77 -29 -230 -18 -154 -28
-266 -42 -505 -7 -119 -7 -733 0 -855 3 -47 8 -139 11 -205 4 -66 8 -138 10
-160 2 -22 7 -80 10 -130 4 -49 8 -97 10 -105 1 -8 6 -55 9 -105 4 -49 9 -101
11 -115 2 -14 7 -61 11 -105 4 -44 8 -82 9 -85 1 -3 5 -41 10 -85 5 -44 9 -82
10 -85 1 -3 5 -36 9 -75 4 -38 9 -81 11 -95 2 -14 6 -47 10 -75 3 -27 8 -61
10 -75 2 -14 11 -79 20 -145 9 -66 18 -131 20 -145 2 -14 7 -47 11 -75 3 -27
8 -59 10 -70 2 -11 11 -67 19 -125 9 -58 18 -116 20 -130 2 -14 9 -56 15 -95
18 -119 120 -759 125 -785 4 -21 66 -408 81 -505 2 -16 6 -41 9 -55 2 -14 7
-45 10 -70 3 -25 8 -56 10 -70 6 -30 11 -69 21 -135 3 -27 8 -57 9 -65 5 -27
24 -164 30 -215 3 -27 8 -63 10 -80 24 -176 30 -226 41 -350 3 -39 8 -72 9
-75 2 -4 7 -51 10 -105 4 -55 8 -106 11 -113 9 -28 19 -331 19 -567 0 -230 -8
-430 -20 -501 -2 -16 -12 -74 -21 -128 -8 -55 -31 -154 -50 -219 -150 -522
-470 -745 -1134 -791 -41 -3 -138 -8 -215 -11 -77 -3 -165 -8 -195 -10 -30 -3
-134 -7 -230 -11 -96 -3 -185 -7 -197 -9 -113 -17 -1486 -27 -1768 -13 -182 9
-285 19 -285 28 0 3 21 26 48 49 26 24 90 85 142 135 52 50 162 154 245 231
286 268 321 301 515 496 410 411 695 750 932 1109 333 504 538 1012 608 1505
6 44 14 100 18 125 4 25 7 164 6 310 0 282 -12 414 -75 865 -97 690 -240 1289
-434 1818 -68 188 -101 269 -146 365 -16 35 -29 65 -29 68 0 10 -155 317 -203
401 -196 344 -377 584 -641 848 -282 282 -553 470 -891 619 -91 40 -100 46
-103 72 -34 335 -119 759 -203 1014 -31 96 -79 232 -89 255 -5 11 -25 58 -45
104 -217 505 -526 876 -870 1045 -169 83 -300 116 -475 120 -243 6 -466 -70
-685 -232 -84 -63 -269 -253 -339 -349 l-59 -82 -60 87 c-84 122 -135 183
-235 285 -257 262 -544 397 -840 395 -59 -1 -116 -3 -127 -5z m265 -774 c389
-207 727 -971 827 -1868 22 -202 22 -672 -1 -876 -46 -418 -139 -796 -283
-1145 -152 -371 -416 -696 -607 -750 -226 -63 -530 241 -746 745 -41 96 -150
394 -150 412 0 2 14 -4 32 -13 107 -55 257 -81 379 -64 187 26 339 108 485
262 144 152 226 312 270 531 25 120 15 321 -21 442 -85 289 -271 521 -508 634
-122 58 -204 75 -340 68 -134 -6 -243 -41 -352 -112 -37 -25 -69 -45 -71 -45
-10 0 47 324 86 487 111 461 304 878 514 1113 96 107 211 191 290 211 54 14
135 1 196 -32z m2172 -85 c236 -75 499 -443 659 -923 144 -435 209 -866 209
-1396 0 -533 -67 -981 -210 -1400 -183 -536 -469 -904 -730 -940 -59 -8 -152
14 -218 52 -73 43 -211 187 -284 298 -96 146 -268 502 -253 524 2 5 22 70 45
146 22 76 41 140 43 141 2 2 26 -5 54 -16 163 -62 364 -45 543 45 240 120 445
398 507 688 28 127 23 324 -10 449 -94 356 -368 646 -675 714 -56 12 -103 15
-184 12 -104 -5 -108 -5 -113 16 -2 11 -12 71 -21 131 -31 211 -71 400 -131
612 l-26 92 81 163 c106 215 184 331 301 448 159 159 257 193 413 144z"/>
</g>
</svg>
