<?xml version="1.0" standalone="no"?>
<!DOCTYPE svg PUBLIC "-//W3C//DTD SVG 20010904//EN"
 "http://www.w3.org/TR/2001/REC-SVG-20010904/DTD/svg10.dtd">
<svg version="1.0" xmlns="http://www.w3.org/2000/svg"
 width="200.000000pt" height="200.000000pt" viewBox="0 0 200.000000 200.000000"
 preserveAspectRatio="xMidYMid meet">
<metadata>
Created by potrace 1.11, written by Peter Selinger 2001-2013
</metadata>
<g transform="translate(0.000000,200.000000) scale(0.100000,-0.100000)"
fill="#000000" stroke="none">
<path d="M900 1807 c-3 -3 -25 -7 -50 -10 -166 -21 -325 -118 -384 -235 -24
-48 -27 -50 -54 -43 -61 18 -134 -5 -186 -58 -115 -117 -86 -356 56 -476 44
-37 106 -65 146 -65 19 0 32 -3 30 -7 -1 -5 -18 -37 -35 -73 -21 -42 -34 -83
-35 -114 l-3 -50 102 -25 c78 -19 103 -29 107 -43 4 -17 13 -19 68 -16 35 1
108 -6 163 -16 138 -25 263 -25 385 -1 114 22 193 40 300 69 l125 32 -3 40
c-4 54 -20 101 -53 154 l-28 45 47 6 c100 13 180 77 235 188 29 59 32 74 32
156 -1 72 -5 98 -22 130 -51 96 -104 129 -210 127 l-71 -1 -31 53 c-59 106
-187 187 -346 220 -61 13 -275 22 -285 13z"/>
<path d="M385 593 c33 -223 302 -403 605 -406 155 -1 235 16 366 79 116 55
202 135 243 226 25 54 46 148 35 148 -2 0 -59 -16 -127 -35 -357 -100 -488
-111 -732 -59 -38 9 -81 18 -95 20 -25 5 -91 21 -120 29 -127 34 -166 45 -174
45 -4 0 -5 -21 -1 -47z"/>
</g>
</svg>
